# xmcd
#
# Track frame offsets:
#	150
#	21595
#	48567
#	84637
#	106225
#	119217
#	137782
#	157032
#	178310
#	194662
#	219152
#
# Disc length: 3291 seconds
#
# Revision: 1
# Processed by: cddbd v1.5.1PL0 Copyright (c) Steve Scherf et al.
# Submitted via: audiograbber 1.83.01
#
DISCID=ab0cd90b
DTITLE=High End 1998 - High End 1998
DYEAR=1998
DGENRE=
TTITLE0=Toscho - Dinner At Woolfie´s
TTITLE1=Miller Anderson - Two Ships
TTITLE2=Kagermann - Delicious Fruit
TTITLE3=Ron Ringwood - Let Me Lean On You
TTITLE4=Electric Blues Duo - Lucky At Cards
TTITLE5=Sunnyland Blues Band - Fall To Pieces
TTITLE6=Frank Nimsgern - Funky Site
TTITLE7=Blues Company - Red Blood
TTITLE8=Larry Conklin - Sun Wind
TTITLE9=Dagobert Böhm - Biker´s Fun
TTITLE10=Greg Barrett - Rainy Night In Georgia
EXTD=
EXTT0=
EXTT1=
EXTT2=
EXTT3=
EXTT4=
EXTT5=
EXTT6=
EXTT7=
EXTT8=
EXTT9=
EXTT10=
PLAYORDER=
